<svg width="111" height="137" viewBox="0 0 111 137" fill="none" xmlns="http://www.w3.org/2000/svg">
<path d="M92.9778 47.4294L75.9747 26.3588C74.1817 24.1348 71.4236 22.8333 68.5046 22.8333H42.2288C39.3098 22.8333 36.5516 24.1348 34.7586 26.3588L17.7555 47.4294C18.9336 64.285 27.3357 78.3412 41.1738 84.0221V84.0175C45.4837 85.7803 50.2383 86.7667 55.3667 86.7667C60.495 86.7667 65.2497 85.7803 69.5596 84.013V84.0175C83.3976 78.3412 91.7951 64.285 92.9778 47.4294ZM41.1738 59.3667C38.5623 59.3667 36.4428 57.3208 36.4428 54.8C36.4428 52.2792 38.5623 50.2333 41.1738 50.2333C43.7853 50.2333 45.9048 52.2792 45.9048 54.8C45.9048 57.3208 43.7853 59.3667 41.1738 59.3667ZM69.5596 59.3667C66.9481 59.3667 64.8286 57.3208 64.8286 54.8C64.8286 52.2792 66.9481 50.2333 69.5596 50.2333C72.1711 50.2333 74.2905 52.2792 74.2905 54.8C74.2905 57.3208 72.1711 59.3667 69.5596 59.3667ZM17.519 40.2871V18.2667C17.519 8.1789 25.9921 0 36.4428 0H74.2905C84.7412 0 93.2144 8.1789 93.2144 18.2667V40.2871L79.7075 23.5549C77.0203 20.2166 72.8854 18.2667 68.5046 18.2667H42.2241C37.8432 18.2667 33.7083 20.2166 31.0212 23.5549L17.519 40.2871ZM110.78 125.926L109.181 118.825C107.899 112.034 102.861 106.586 96.1523 104.65L73.7465 96.7677L69.6778 100.165C65.6991 103.504 60.5897 105.348 55.291 105.348C50.0112 105.348 44.9207 103.517 40.9514 100.184L36.9207 96.8225L14.7325 104.604C7.88676 106.591 2.83409 112.039 1.55673 118.834L0.15637 126.232C-0.903365 131.84 3.55793 137 9.46217 137H101.531C107.568 137 112.062 131.62 110.78 125.926ZM93.2144 123.3C93.2144 125.821 91.0949 127.867 88.4834 127.867H74.2905C71.679 127.867 69.5596 125.821 69.5596 123.3V118.733C69.5596 116.213 71.679 114.167 74.2905 114.167H88.4834C91.0949 114.167 93.2144 116.213 93.2144 118.733V123.3ZM55.3667 91.3333C60.443 91.3333 65.1881 90.4885 69.5596 88.9632V94.224L66.5791 96.7174C60.3437 101.946 50.2856 101.96 44.055 96.7357L41.1738 94.3336V88.9678C45.5452 90.4885 50.2904 91.3333 55.3667 91.3333ZM74.2905 118.733H88.4834V123.3H74.2905V118.733Z" fill="url(#paint0_linear_90_1023)"/>
<defs>
<linearGradient id="paint0_linear_90_1023" x1="-28.8808" y1="16.7651" x2="76.9326" y2="142.488" gradientUnits="userSpaceOnUse">
<stop stop-color="#414141"/>
<stop offset="1" stop-color="#262626"/>
</linearGradient>
</defs>
</svg>
