<svg width="158" height="139" viewBox="0 0 158 139" fill="none" xmlns="http://www.w3.org/2000/svg">
<path d="M98.8068 38.0314C87.8858 31.0334 70.2442 31.0334 59.3878 38.0314C48.5314 45.0294 48.596 56.4057 59.517 63.4037C70.438 70.4017 88.0797 70.4017 98.9361 63.4037C109.792 56.3698 109.728 45.0294 98.8068 38.0314ZM93.7987 49.0488C92.8616 49.3718 91.9246 49.7307 90.9876 50.0536C90.406 50.2331 90.0506 50.269 89.7921 50.1254C89.6629 50.0178 89.5336 49.8742 89.4044 49.6589C88.7905 48.5464 87.8535 47.5774 86.5934 46.7879C86.4318 46.6802 86.238 46.5726 86.0441 46.4649C85.6241 46.2137 85.2363 46.0343 84.7194 45.8907C82.91 45.4242 81.2944 46.1778 81.5206 47.4339C81.6175 48.0798 81.9406 48.654 82.3284 49.2641C82.9746 50.269 83.6854 51.2738 84.1378 52.3504C85.6564 55.7238 82.3607 59.0613 77.0617 59.3843C75.1554 59.492 73.346 59.2408 71.6658 58.6307C70.9227 58.3795 70.3734 58.3795 69.8241 58.8101C69.2749 59.2049 68.6609 59.5637 68.0794 59.9226C67.5624 60.2456 67.0131 60.2815 66.4961 59.9585C66.1084 59.7432 65.753 59.492 65.3653 59.2766C65.1068 59.0972 64.8483 58.9537 64.5898 58.7742C64.0405 58.4154 64.1052 58.0565 64.6221 57.6976C65.0422 57.4105 65.4622 57.1593 65.8499 56.8722C66.7869 56.2621 66.7869 56.2262 66.0115 55.5444C65.0422 54.6831 64.1698 53.7859 63.6205 52.7811C63.2004 51.9915 63.2974 51.8121 64.4283 51.3815C65.2683 51.0944 66.0761 50.7714 66.9162 50.4843C67.5301 50.269 67.8855 50.2331 68.144 50.3766C68.3055 50.4843 68.4025 50.6278 68.5317 50.879C69.081 52.0274 70.018 53.0323 71.1489 54.0012C71.3427 54.1807 71.5689 54.3242 71.7628 54.4678C72.3767 54.8625 73.0875 55.1496 73.8953 55.3649C75.9955 55.9032 77.8695 54.9702 77.6756 53.4988C77.611 52.9964 77.3848 52.5657 77.094 52.0992C76.3832 50.9149 75.4462 49.8024 74.9615 48.5464C74.1861 46.5367 74.5415 44.7065 77.0294 43.271C79.8728 41.656 83.0392 41.5484 86.3995 42.5532C87.7889 42.9839 87.7566 42.9839 88.8228 42.302C89.1782 42.0508 89.5336 41.8355 89.8891 41.6202C90.6968 41.1177 90.9876 41.1177 91.7954 41.6202C92.0539 41.7637 92.2801 41.9431 92.5385 42.0867C94.251 43.1633 94.251 43.1633 92.5708 44.2758C91.3754 45.0294 91.3754 45.0294 92.377 45.9266C93.1524 46.6085 93.7663 47.3262 94.2187 48.1157C94.5741 48.5105 94.4449 48.8335 93.7987 49.0488ZM113.379 72.6626C110.374 74.6005 105.495 74.6005 102.458 72.6626C99.453 70.7246 99.4207 67.5666 102.426 65.6287C105.431 63.6908 110.309 63.6908 113.347 65.6287C116.384 67.5666 116.416 70.7246 113.379 72.6626ZM55.8659 35.7705C52.861 37.7085 47.9821 37.7085 44.9449 35.7705C41.9077 33.8326 41.9077 30.6746 44.9126 28.7367C47.9175 26.7987 52.7964 26.7987 55.8336 28.7367C58.8385 30.6746 58.8708 33.8326 55.8659 35.7705ZM154.252 57.6258L68.144 2.39547C63.1681 -0.79849 55.0905 -0.79849 50.1469 2.39547L3.97499 32.1818C-0.968541 35.3758 -0.936231 40.5794 4.03961 43.7734L90.1475 99.0037C95.1234 102.198 103.201 102.198 108.145 99.0037L154.284 69.2174C159.26 66.0234 159.228 60.8198 154.252 57.6258ZM109.082 88.4888C108.532 87.9146 107.886 87.3763 107.111 86.8739C102.07 83.644 93.8956 83.644 88.8874 86.8739C88.4997 87.1251 88.1766 87.3763 87.8212 87.6634L20.9704 44.7782C21.6166 44.4911 22.2305 44.1681 22.8121 43.8093C27.8203 40.5794 27.788 35.3399 22.7475 32.1101C22.1982 31.7512 21.6166 31.4282 21.0027 31.177L48.5637 13.3769C48.9838 13.7717 49.4684 14.1306 50.0177 14.4894C55.0582 17.7193 63.2328 17.7193 68.2409 14.4894C68.8225 14.1306 69.3072 13.7358 69.7595 13.3052L136.836 56.298C135.932 56.6569 135.124 57.0516 134.349 57.5541C129.34 60.7839 129.34 66.0593 134.413 69.2892C135.189 69.7916 136.061 70.1863 136.966 70.5452L109.082 88.4888ZM1.77787 54.8266C3.97499 53.5706 7.36761 53.75 9.46781 55.1137L99.4853 112.82L148.145 81.3831C150.245 80.0194 153.703 80.0194 155.835 81.3831C157.968 82.7469 157.968 84.9719 155.867 86.3356L104.138 119.711C101.618 121.361 97.4821 121.361 94.9295 119.711L93.1201 118.562L91.86 117.737L1.61631 59.8867C-0.580813 58.4871 -0.548502 56.1545 1.77787 54.8266ZM155.932 104.387L104.203 137.762C101.682 139.413 97.5467 139.413 94.9942 137.762L93.2171 136.614L91.9246 135.788L1.68093 77.938C-0.516192 76.5384 -0.45157 74.2057 1.8748 72.8779C4.03961 71.6218 7.46454 71.8013 9.56474 73.165L99.5499 130.872L148.21 99.4703C150.342 98.1066 153.767 98.1066 155.9 99.4703C158.032 100.798 158.065 103.023 155.932 104.387Z" fill="url(#paint0_linear_90_1010)"/>
<defs>
<linearGradient id="paint0_linear_90_1010" x1="13.5839" y1="31.7885" x2="134.733" y2="123.728" gradientUnits="userSpaceOnUse">
<stop stop-color="#5577CD"/>
<stop offset="1" stop-color="#5577CD"/>
</linearGradient>
</defs>
</svg>
