<svg width="125" height="126" viewBox="0 0 125 126" fill="none" xmlns="http://www.w3.org/2000/svg">
<g clip-path="url(#clip0_90_1027)">
<path fill-rule="evenodd" clip-rule="evenodd" d="M117.028 50.288C117.028 21.98 94.0614 0 65.8283 0C37.5953 0 14.6284 21.98 14.6284 49C6.12196 53.179 -8.01086e-05 60.872 -8.01086e-05 70V84C-8.01086e-05 89.5695 2.31174 94.911 6.42682 98.8493C10.5419 102.788 16.1231 105 21.9427 105H29.257C31.1969 105 33.0573 104.263 34.4289 102.95C35.8006 101.637 36.5713 99.8565 36.5713 98V56C36.5713 54.1435 35.8006 52.363 34.4289 51.0503C33.0573 49.7375 31.1969 49 29.257 49C29.257 39.7174 33.11 30.815 39.9685 24.2513C46.8269 17.6875 56.129 14 65.8283 14C75.5276 14 84.8297 17.6875 91.6882 24.2513C98.5466 30.815 102.4 39.7174 102.4 49C100.46 49 98.5994 49.7375 97.2277 51.0503C95.856 52.363 95.0854 54.1435 95.0854 56V98C95.0854 99.8565 95.856 101.637 97.2277 102.95C98.5994 104.263 100.46 105 102.4 105V112H83.4411C81.9343 107.933 77.9115 105 73.1426 105H58.5141C55.6043 105 52.8136 106.106 50.7561 108.075C48.6986 110.045 47.5426 112.715 47.5426 115.5C47.5426 118.285 48.6986 120.955 50.7561 122.925C52.8136 124.894 55.6043 126 58.5141 126H102.4C106.279 126 110 124.525 112.744 121.9C115.487 119.274 117.028 115.713 117.028 112V103.719C121.298 102.283 124.997 99.6158 127.617 96.0843C130.237 92.5529 131.648 88.331 131.657 84V70C131.649 65.6697 130.237 61.4485 127.617 57.918C124.997 54.3876 121.298 51.7218 117.028 50.288L-51.2 434L117.028 50.288Z" fill="url(#paint0_linear_90_1027)"/>
</g>
<defs>
<linearGradient id="paint0_linear_90_1027" x1="23.6685" y1="27.0508" x2="102.635" y2="131.076" gradientUnits="userSpaceOnUse">
<stop stop-color="#3C3C3C"/>
<stop offset="1" stop-color="#262626"/>
</linearGradient>
<clipPath id="clip0_90_1027">
<rect width="125" height="126" fill="white"/>
</clipPath>
</defs>
</svg>
