<svg width="136" height="130" viewBox="0 0 136 130" fill="none" xmlns="http://www.w3.org/2000/svg">
<g clip-path="url(#clip0_90_1014)">
<path d="M71.06 0C57.0057 0 43.267 4.2761 31.5812 12.2876C19.8955 20.299 10.7875 31.686 5.40915 45.0086C0.0307891 58.3312 -1.37644 72.9909 1.36543 87.1341C4.1073 101.277 10.8751 114.269 20.813 124.465C30.7509 134.662 43.4126 141.606 57.1969 144.419C70.9812 147.232 85.269 145.789 98.2535 140.27C111.238 134.752 122.336 125.407 130.144 113.417C137.952 101.427 142.12 87.3303 142.12 72.91C142.12 53.5731 134.633 35.0281 121.307 21.3549C107.981 7.68157 89.9063 0 71.06 0ZM71.06 127.593C60.5193 127.593 50.2152 124.385 41.4509 118.377C32.6866 112.368 25.8556 103.828 21.8219 93.8362C17.7881 83.8442 16.7327 72.8494 18.7891 62.242C20.8455 51.6346 25.9213 41.8911 33.3748 34.2437C40.8282 26.5962 50.3245 21.3882 60.6627 19.2782C71.0009 17.1683 81.7168 18.2512 91.4551 22.39C101.194 26.5288 109.517 33.5376 115.373 42.5301C121.229 51.5226 124.355 62.0949 124.355 72.91C124.34 87.4079 118.72 101.308 108.728 111.559C98.737 121.811 85.19 127.577 71.06 127.593Z" fill="url(#paint0_linear_90_1014)"/>
<path d="M88.9137 72.91H75.5012C74.3233 72.91 73.1936 72.4299 72.3607 71.5753C71.5278 70.7207 71.0599 69.5617 71.0599 68.3531V54.5913C71.0605 53.4063 70.8335 52.2328 70.3917 51.1378C69.95 50.0429 69.3023 49.048 68.4856 48.2101C67.6689 47.3721 66.6993 46.7075 65.6321 46.2543C64.565 45.8011 63.4212 45.5681 62.2662 45.5687H62.0886C60.9336 45.5681 59.7899 45.8011 58.7227 46.2543C57.6556 46.7075 56.6859 47.3721 55.8692 48.2101C55.0525 49.048 54.4048 50.0429 53.9631 51.1378C53.5214 52.2328 53.2943 53.4063 53.2949 54.5913V82.1149C53.2943 83.2999 53.5214 84.4735 53.9631 85.5684C54.4048 86.6633 55.0525 87.6582 55.8692 88.4962C56.6859 89.3341 57.6556 89.9987 58.7227 90.4519C59.7899 90.9051 60.9336 91.1381 62.0886 91.1375H88.9137C90.0687 91.1381 91.2125 90.9051 92.2796 90.4519C93.3468 89.9987 94.3164 89.3341 95.1331 88.4962C95.9498 87.6582 96.5975 86.6633 97.0392 85.5684C97.4809 84.4735 97.708 83.2999 97.7074 82.1149V81.9326C97.708 80.7476 97.4809 79.574 97.0392 78.4791C96.5975 77.3842 95.9498 76.3893 95.1331 75.5513C94.3164 74.7134 93.3468 74.0488 92.2796 73.5956C91.2125 73.1424 90.0687 72.9094 88.9137 72.91Z" fill="url(#paint1_linear_90_1014)"/>
</g>
<defs>
<linearGradient id="paint0_linear_90_1014" x1="25.84" y1="19.9471" x2="122.176" y2="119.268" gradientUnits="userSpaceOnUse">
<stop stop-color="#414141"/>
<stop offset="0.728332" stop-color="#262626"/>
</linearGradient>
<linearGradient id="paint1_linear_90_1014" x1="53.0399" y1="45.3968" x2="93.717" y2="95.153" gradientUnits="userSpaceOnUse">
<stop stop-color="#404040"/>
<stop offset="1" stop-color="#282828"/>
</linearGradient>
<clipPath id="clip0_90_1014">
<rect width="136" height="130" fill="white"/>
</clipPath>
</defs>
</svg>
